HIERARCHY
ROOT Hips
{
	OFFSET 0.00000 0.00000 0.00000
	CHANNELS 6 Xposition Yposition Zposition Zrotation Yrotation Xrotation 
	JOINT LHipJoint
	{
		OFFSET 0 0 0
		CHANNELS 3 Zrotation Yrotation Xrotation
		JOINT LeftUpLeg
		{
			OFFSET 1.35324 -1.81393 0.86676
			CHANNELS 3 Zrotation Yrotation Xrotation
			JOINT LeftLeg
			{
				OFFSET 2.44396 -6.71474 0.00000
				CHANNELS 3 Zrotation Yrotation Xrotation
				JOINT LeftFoot
				{
					OFFSET 2.78389 -7.64869 0.00000
					CHANNELS 3 Zrotation Yrotation Xrotation
					JOINT LeftToeBase
					{
						OFFSET 0.15837 -0.43512 1.94704
						CHANNELS 3 Zrotation Yrotation Xrotation
						End Site
						{
							OFFSET 0.00000 -0.00000 1.00735
						}
					}
				}
			}
		}
	}
	JOINT RHipJoint
	{
		OFFSET 0 0 0
		CHANNELS 3 Zrotation Yrotation Xrotation
		JOINT RightUpLeg
		{
			OFFSET -1.14956 -1.81393 0.86676
			CHANNELS 3 Zrotation Yrotation Xrotation
			JOINT RightLeg
			{
				OFFSET -2.55632 -7.02343 0.00000
				CHANNELS 3 Zrotation Yrotation Xrotation
				JOINT RightFoot
				{
					OFFSET -2.63038 -7.22691 0.00000
					CHANNELS 3 Zrotation Yrotation Xrotation
					JOINT RightToeBase
					{
						OFFSET -0.22277 -0.61205 2.06087
						CHANNELS 3 Zrotation Yrotation Xrotation
						End Site
						{
							OFFSET -0.00000 -0.00000 1.07867
						}
					}
				}
			}
		}
	}
	JOINT LowerBack
	{
		OFFSET 0 0 0
		CHANNELS 3 Zrotation Yrotation Xrotation
		JOINT Spine
		{
			OFFSET -0.05682 2.18266 -0.21665
			CHANNELS 3 Zrotation Yrotation Xrotation
			JOINT Spine1
			{
				OFFSET 0.08791 2.18267 0.00700
				CHANNELS 3 Zrotation Yrotation Xrotation
				JOINT Neck
				{
					OFFSET 0 0 0
					CHANNELS 3 Zrotation Yrotation Xrotation
					JOINT Neck1
					{
						OFFSET -0.14851 1.58495 0.25390
						CHANNELS 3 Zrotation Yrotation Xrotation
						JOINT Head
						{
							OFFSET 0.13566 1.62237 -0.28476
							CHANNELS 3 Zrotation Yrotation Xrotation
							End Site
							{
								OFFSET 0.05601 1.65818 -0.12921
							}
						}
					}
				}
				JOINT LeftShoulder
				{
					OFFSET 0 0 0
					CHANNELS 3 Zrotation Yrotation Xrotation
					JOINT LeftArm
					{
						OFFSET 3.23337 0.97114 -0.51072
						CHANNELS 3 Zrotation Yrotation Xrotation
						JOINT LeftForeArm
						{
							OFFSET 5.19964 -0.00068 -0.00051
							CHANNELS 3 Zrotation Yrotation Xrotation
							JOINT LeftHand
							{
								OFFSET 3.32189 -0.00000 0.00000
								CHANNELS 3 Zrotation Yrotation Xrotation
								JOINT LeftFingerBase
								{
									OFFSET 0 0 0
									CHANNELS 3 Zrotation Yrotation Xrotation
									JOINT LeftHandIndex1
									{
										OFFSET 0.64562 -0.00000 0.00000
										CHANNELS 3 Zrotation Yrotation Xrotation
										End Site
										{
											OFFSET 0.52051 -0.00000 0.00000
										}
									}
								}
								JOINT LThumb
								{
									OFFSET 0 0 0
									CHANNELS 3 Zrotation Yrotation Xrotation
									End Site
									{
										OFFSET 0.52846 -0.00000 0.52846
									}
								}
							}
						}
					}
				}
				JOINT RightShoulder
				{
					OFFSET 0 0 0
					CHANNELS 3 Zrotation Yrotation Xrotation
					JOINT RightArm
					{
						OFFSET -2.95712 1.24697 -0.52388
						CHANNELS 3 Zrotation Yrotation Xrotation
						JOINT RightForeArm
						{
							OFFSET -5.65950 -0.00000 -0.00000
							CHANNELS 3 Zrotation Yrotation Xrotation
							JOINT RightHand
							{
								OFFSET -3.37604 -0.00000 -0.00000
								CHANNELS 3 Zrotation Yrotation Xrotation
								JOINT RightFingerBase
								{
									OFFSET 0 0 0
									CHANNELS 3 Zrotation Yrotation Xrotation
									JOINT RightHandIndex1
									{
										OFFSET -0.82470 -0.00000 -0.00000
										CHANNELS 3 Zrotation Yrotation Xrotation
										End Site
										{
											OFFSET -0.66490 -0.00000 -0.00000
										}
									}
								}
								JOINT RThumb
								{
									OFFSET 0 0 0
									CHANNELS 3 Zrotation Yrotation Xrotation
									End Site
									{
										OFFSET -0.67505 -0.00000 0.67505
									}
								}
							}
						}
					}
				}
			}
		}
	}
}
MOTION
Frames: 6
Frame Time: 0.0555556
0.00 0.00 0.00 0 0 0 0 0 0 -21 0 0 0 0 0 0 0 0 0 0 0 0 0 0 21 0 0 0 0 0 0 0 0 0 0 0 0 0 0 0 0 0 0 0 0 0 0 -16 0 0 21 0 0 11 0 0 0 -8 0 0 0 0 0 0 0 0 0 0 0 0 0 0 0 0 0 0 0 0 8 0 0 0 0 0 0 0 0 0 0 0 0 0 0 0 0 0
0.00 0.00 0.00 -2.2008 -19.2747 6.0344 0.0000 0.0000 0.0000 -15.6838 -7.3901 -20.1181 7.4815 15.7243 50.6727 1.5438 -2.7189 -22.7722 0.1578 -2.5593 -7.0542 0.0000 0.0000 0.0000 25.9233 8.2637 -13.0125 -4.8430 -13.2047 40.1398 -2.6712 0.0025 -30.9892 -1.5915 -7.9576 22.5854 -2.3911 -0.5447 5.4064 4.3186 -0.6969 -2.6431 5.9577 -0.1685 -5.7189 -14.2330 -4.9281 -13.1489 9.4645 -5.7366 18.8577 4.9218 -2.8198 8.7450 -0.0000 -0.0000 0.0000 -95.1919 1.6763 19.7243 13.4842 -21.9925 -2.6318 -0.0000 -0.0000 10.3866 3.7084 34.3799 2.0960 -7.1250 0.0000 -0.0000 -34.2418 61.0482 -14.3336 -0.0000 -0.0000 0.0000 84.7782 -5.1246 10.2276 -15.3866 24.6819 -3.3857 0.0000 -0.0000 -12.1716 -14.2679 16.6084 -4.1573 7.1250 -0.0000 -0.0000 9.0065 -13.0275 6.8312
0.00 0.00 0.00 -4.1746 -22.1190 13.3179 0.0000 0.0000 0.0000 0.9342 -26.0320 -38.5116 5.4450 13.8681 42.7114 0.3149 -8.5219 -10.8650 0.6288 5.0738 14.1193 0.0000 0.0000 0.0000 25.5871 6.0349 -2.8673 -2.3547 -9.5689 27.5915 -2.4755 0.4522 -29.6836 -0.7360 -5.4809 15.2854 0.5933 1.0730 9.0716 3.8723 1.7282 -1.1303 3.4859 0.8979 -6.3923 -12.3528 -5.7011 -16.3597 10.7271 -7.0865 18.5173 4.8314 -3.0931 9.3684 -0.0000 0.0000 0.0000 -93.4660 -2.9038 9.9411 12.7502 -20.9201 -2.3634 -0.0000 -0.0000 10.1921 6.1580 30.9583 3.1767 -7.1250 0.0000 -0.0000 -28.5316 58.7290 -10.0950 -0.0000 0.0000 0.0000 83.5784 -1.6030 11.4170 -16.9165 26.7476 -4.0497 0.0000 -0.0000 -14.0456 -14.2786 16.6448 -4.1694 7.1250 -0.0000 -0.0000 8.9999 -12.9898 6.8333
0.00 0.00 0.00 -2.3903 -28.5951 14.6075 0.0000 0.0000 0.0000 -9.7365 -20.5168 -33.4984 6.7457 15.1139 47.9058 1.0206 -8.1687 -18.0993 0.1510 -2.5042 -6.9013 0.0000 0.0000 0.0000 17.1172 9.2754 -5.2709 -5.2822 -13.6947 42.0279 -0.6420 1.3010 -14.7469 -0.0039 0.4039 -1.1099 -2.9972 1.3302 9.4654 3.6388 1.6383 -0.4193 5.2932 0.9565 -5.9584 -11.9625 -4.4360 -14.3632 11.4627 -6.0293 20.7954 5.2590 -2.5730 9.6521 -0.0000 0.0000 0.0000 -93.2518 -4.0765 5.5778 11.4517 -18.9773 -1.9202 -0.0000 -0.0000 12.8268 6.1764 30.6434 3.1571 -7.1250 0.0000 -0.0000 -28.2464 58.4589 -9.7970 -0.0000 0.0000 0.0000 81.7769 -0.2147 7.3310 -20.3745 31.0909 -5.7235 0.0000 -0.0000 -15.7044 -15.0432 17.0555 -4.5071 7.1250 -0.0000 -0.0000 8.4997 -12.5001 6.5325
0.00 0.00 0.00 -0.5355 -31.8190 14.3359 0.0000 0.0000 0.0000 -16.4689 -18.6941 -26.4608 5.8611 14.2924 44.4217 1.3816 -7.4112 -21.0189 0.0450 -1.3687 -3.7638 0.0000 0.0000 0.0000 11.3913 10.1902 -14.3206 -9.1876 -16.9269 56.7367 0.0207 -2.6782 -1.8443 -0.6942 -5.3263 14.8417 -5.9503 0.6670 9.6296 3.5152 0.4068 -0.2702 7.0477 0.4301 -5.7778 -12.6826 -3.1512 -13.6114 11.6826 -4.2901 21.8583 5.7317 -1.8396 9.6593 0.0000 -0.0000 0.0000 -92.0003 -4.7038 6.6641 12.1731 -20.0637 -2.1613 -0.0000 -0.0000 11.4305 7.5088 30.6397 3.8431 -7.1250 0.0000 -0.0000 -26.9115 58.7497 -9.4792 0.0000 -0.0000 0.0000 81.0121 -1.2069 10.8275 -24.0264 35.1922 -7.7218 0.0000 -0.0000 -17.3897 -14.0989 18.1981 -4.4850 7.1250 -0.0000 -0.0000 9.1449 -11.4370 7.2452
0.00 0.00 0.00 0.2659 -36.1388 18.2705 0.0000 0.0000 0.0000 -25.5333 -11.9510 -17.0579 4.7468 13.0929 39.7171 1.1656 -6.8237 -19.2823 0.9950 -6.3483 -17.7984 0.0000 0.0000 0.0000 10.0900 11.9611 -43.8944 -11.3804 -18.1162 64.0108 -0.8664 -0.1090 -17.6353 -0.2133 -2.9735 8.2051 -8.2987 0.1078 10.6503 2.5831 -0.7253 0.4861 7.5696 -0.1239 -5.3453 -11.6745 -2.5282 -13.8553 12.3616 -3.6850 20.5401 5.8282 -1.3962 9.1507 -0.0000 0.0000 0.0000 -86.4744 -16.4424 9.6814 15.1817 -24.3986 -3.3006 -0.0000 -0.0000 6.3455 7.8248 31.1561 4.0668 -7.1250 0.0000 -0.0000 -27.0286 59.2756 -9.8700 -0.0000 0.0000 0.0000 82.4620 -1.7099 14.4105 -25.5416 36.7525 -8.6119 0.0000 -0.0000 -15.5768 -11.7379 19.9849 -4.0620 7.1250 -0.0000 -0.0000 10.7055 -9.8811 8.8700
